# xmcd CD database file
#
# Track frame offsets:
#	150
#	11860
#	25230
#	38015
#	50642
#	66197
#	79122
#	92070
#	104407
#	117887
#	133210
#	145317
#	159562
#	171310
#	185152
#	199080
#	211130
#	222580
#	232827
#	243765
#	255377
#	265497
#	277565
#	287247
#	296467
#
# Disc length: 4155 seconds
#
# Revision: 0
# Processed by: cddbd v1.5.1PL0 Copyright (c) Steve Scherf et al.
# Submitted via: CDex 1.60beta1
#
DISCID=76103919
DTITLE=Various Artist - Taste of the Blues, Vol. 1
DYEAR=1993
DGENRE=Blues
TTITLE0=Jimmy Reed/Boogie in the Dark
TTITLE1=Eddie Taylor/Bad Boy
TTITLE2=L.C. McKinley/She's Five Feet Three (AKA Brown Skin Baby)
TTITLE3=Earl Phillips/Oop de Oop
TTITLE4=Morris Pejoe/Hurt My Feelings
TTITLE5=Jay McShann/Hands Off
TTITLE6=Billy Boy Arnold/Don't Stay Out All Night
TTITLE7=Billy "The Kid" Emerson/Every Woman I Know
TTITLE8=Eddie Taylor/Big Town Playboy
TTITLE9=Camille Howard/Business Woman
TTITLE10=Snooky Pryor/Judgement Day
TTITLE11=Pee Wee Crayton/The Telephone Is Ringing
TTITLE12=Pee Wee Crayton/I Found Peace of Mind
TTITLE13=Elmore James/It Hurts Me Too
TTITLE14=Elmore James/Twelve Year Old Boy
TTITLE15=Billy Boy Arnold/Rockinitis
TTITLE16=Jimmy Reed/Down in Virginia
TTITLE17=Jimmy Witherspoon/K. C. Loving [#]
TTITLE18=Jimmy Witherspoon/I Know I Know
TTITLE19=John Lee Hooker/Boogie Children
TTITLE20=Harold Burrage/Crying for My Baby
TTITLE21=Rosco Gordon/No More Doggin'
TTITLE22=Rosco Gordon/Just a Little Bit
TTITLE23=J.B. Lenoir/Do What I Say
TTITLE24=John Lee Hooker/Tupelo
EXTD=YEAR: 1993
EXTT0=
EXTT1=
EXTT2=
EXTT3=
EXTT4=
EXTT5=
EXTT6=
EXTT7=
EXTT8=
EXTT9=
EXTT10=
EXTT11=
EXTT12=
EXTT13=
EXTT14=
EXTT15=
EXTT16=
EXTT17=
EXTT18=
EXTT19=
EXTT20=
EXTT21=
EXTT22=
EXTT23=
EXTT24=
PLAYORDER=
